# xmcd
#
# Track frame offsets: 
#        150
#        23175
#        50822
#        79036
#        100504
#        113661
#        132613
#        161485
#        185535
#        209916
#
# Disc length: 3152 seconds
#
# Revision: 3
# Processed by: cddbd v1.5.2PL0 Copyright (c) Steve Scherf et al.
# Submitted via: ExactAudioCopyFreeDBPlugin 1.0
#
DISCID=8a0c4e0a
DTITLE=Various Artist - Autour de Nina
DYEAR=2014
DGENRE=Jazz
TTITLE0=Lianne La Havas - Baltimore
TTITLE1=Keziah Jones - Sinnerman
TTITLE2=Hindi Zahra - Just Say I Love Him
TTITLE3=Gregory Porter - Black is the Color (Of My True Love's Hair)
TTITLE4=Olivia Ruiz - My Baby Just Cares for Me
TTITLE5=Ben L'Oncle Soul - Feeling Good
TTITLE6=Melody Gardot - Four Women
TTITLE7=Youn Sun Nah - Plain Gold Ring
TTITLE8=Sophie Hunger - I Put a Spell on You
TTITLE9=Camille - Lilac Wine
EXTD=YEAR: 2014
EXTT0=
EXTT1=
EXTT2=
EXTT3=
EXTT4=
EXTT5=
EXTT6=
EXTT7=
EXTT8=
EXTT9=
PLAYORDER=
